PathFileType	4	(x/y/z)	S05_PSF_T05
DataRate	CameraRate	NumFrames	NumMarkers	Units	OrigDataRate	OrigDataStartFrame	OrigNumFrames
240	240	11	50	mm	240	1	445
Frame#	Time	Sternum			R.Acromium			L.Acromium			Top.Head			R.ASIS			L.ASIS			R.PSIS			L.PSIS			R.Great.Tro			L.Great.Tro			R.Iliac.Crest			L.Iliac.Crest			V.Sacral			R.Thigh.Upper.Post			R.Thigh.Lower.Ant			R.Thigh.Lower.Post			R.Thigh.Upper.Ant			R.Knee.Lat			R.Knee.Med			R.Shank.Upper.Post			R.Shank.Lower.Ant			R.Shank.Lower.Post			R.Shank.Upper.Ant			R.Ankle.Lat			R.Ankle.Med			R.Heel.Upper			R.Heel.Med			R.Heel.Lat			R.Toe.Lat			R.Toe.Med			R.Toe.Tip			L.Thigh.Upper.Post			L.Thigh.Lower.Ant			L.Thigh.Lower.Post			L.Thigh.Upper.Ant			L.Knee.Lat			L.Shank.Upper.Post			L.Shank.Lower.Ant			L.Shank.Lower.Post			L.Shank.Upper.Ant			L.Ankle.Lat			L.Ankle.Med			L.Heel.Upper			L.Heel.Med			L.Heel.Lat			L.Toe.Lat			L.Toe.Med			L.Toe.Tip			Cervical.Spine			Back			
		X1	Y1	Z1	X2	Y2	Z2	X3	Y3	Z3	X4	Y4	Z4	X5	Y5	Z5	X6	Y6	Z6	X7	Y7	Z7	X8	Y8	Z8	X9	Y9	Z9	X10	Y10	Z10	X11	Y11	Z11	X12	Y12	Z12	X13	Y13	Z13	X14	Y14	Z14	X15	Y15	Z15	X16	Y16	Z16	X17	Y17	Z17	X18	Y18	Z18	X19	Y19	Z19	X20	Y20	Z20	X21	Y21	Z21	X22	Y22	Z22	X23	Y23	Z23	X24	Y24	Z24	X25	Y25	Z25	X26	Y26	Z26	X27	Y27	Z27	X28	Y28	Z28	X29	Y29	Z29	X30	Y30	Z30	X31	Y31	Z31	X32	Y32	Z32	X33	Y33	Z33	X34	Y34	Z34	X35	Y35	Z35	X36	Y36	Z36	X37	Y37	Z37	X38	Y38	Z38	X39	Y39	Z39	X40	Y40	Z40	X41	Y41	Z41	X42	Y42	Z42	X43	Y43	Z43	X44	Y44	Z44	X45	Y45	Z45	X46	Y46	Z46	X47	Y47	Z47	X48	Y48	Z48	X49	Y49	Z49	X50	Y50	Z50	

1	0	NaN	NaN	NaN	-1667.6	1503.7	485.68	-1684.8	1523.8	160.53	-1662.4	1816.7	305.66	NaN	NaN	NaN	NaN	NaN	NaN	NaN	NaN	NaN	NaN	NaN	NaN	-1754.4	928.69	514.67	-1680.7	911.03	128.89	-1744.2	1085.5	487.7	-1699.2	1073.7	153.65	-1841.5	980.93	313.24	-1730.4	698.66	499.5	NaN	NaN	NaN	-1775.4	622.46	478.78	NaN	NaN	NaN	NaN	NaN	NaN	NaN	NaN	NaN	-1939.1	310.49	434.93	-1897.3	233.42	436.14	-1962.5	241.14	417.76	NaN	NaN	NaN	-1933.1	132.98	414.3	NaN	NaN	NaN	-2011.5	88.734	351.02	-1999.7	54.515	325.34	-2005.7	61.434	388.89	-1844	41.787	451.36	-1802.1	45.303	332.87	-1740.4	58.856	381.92	-1608.3	681.87	128.02	-1508.7	638.34	155.59	-1568.5	595.81	142.38	-1540.2	723.07	142.77	-1522	521.21	152.55	-1486.5	313.69	149.22	-1395.9	300.43	144.35	-1451.3	253.64	165.31	-1434.9	359.27	136	-1347.2	147.03	165.29	-1315.6	182.96	248.11	NaN	NaN	NaN	NaN	NaN	NaN	NaN	NaN	NaN	-1198.4	145.87	120.26	-1176.9	178.22	233.05	-1137.4	219.37	171.39	-1721	1553.9	329.14	-1834.7	1280.9	325.8
2	0.0041667	NaN	NaN	NaN	-1662.7	1502.9	485.13	-1679.7	1522.7	159.92	-1657.7	1815.8	304.9	NaN	NaN	NaN	NaN	NaN	NaN	NaN	NaN	NaN	NaN	NaN	NaN	-1749.7	927.9	514.26	-1675	910.27	128.6	-1739.4	1084.6	487.35	-1693.9	1072.8	153.32	-1836.4	980.1	312.57	-1726.2	697.89	499.35	NaN	NaN	NaN	-1771.4	621.77	478.65	NaN	NaN	NaN	NaN	NaN	NaN	NaN	NaN	NaN	-1937.7	311.13	434.82	-1895.6	233.4	435.88	-1961.1	241.75	417.53	NaN	NaN	NaN	-1932.4	133.34	414.07	NaN	NaN	NaN	-2011.1	89.514	350.72	-1999.4	55.243	325.05	-2005.5	62.191	388.58	-1844	41.845	451.34	-1801.9	45.153	332.92	-1740.2	58.524	381.94	-1602.1	681.47	127.88	-1502.5	638.04	155.98	-1562.2	595.45	142.33	-1534.1	722.75	143.12	-1515.9	520.74	152.46	-1480.3	313.51	149.08	-1390.3	299.56	144.47	-1445.5	252.91	165.16	-1428.9	358.6	135.95	-1341.9	146.11	165.34	-1310.5	181.97	248.46	NaN	NaN	NaN	NaN	NaN	NaN	NaN	NaN	NaN	-1193.2	144.99	120.56	-1171.7	177.18	233.6	-1132.1	218.48	172.07	-1715.8	1553	328.54	-1829.7	1280.1	325.31
3	0.0083333	NaN	NaN	NaN	-1657.5	1502.1	484.56	-1674.4	1521.6	159.27	-1652.8	1814.9	304.1	NaN	NaN	NaN	NaN	NaN	NaN	NaN	NaN	NaN	NaN	NaN	NaN	-1744.9	927.09	513.83	-1669	909.49	128.28	-1734.4	1083.8	486.98	-1688.3	1071.9	152.96	-1831	979.24	311.87	-1722	697.13	499.21	NaN	NaN	NaN	-1767.2	621.06	478.51	NaN	NaN	NaN	NaN	NaN	NaN	NaN	NaN	NaN	-1936.1	311.8	434.69	-1893.9	233.41	435.62	-1959.7	242.4	417.29	NaN	NaN	NaN	-1931.6	133.75	413.84	NaN	NaN	NaN	-2010.7	90.366	350.43	-1999.1	56.042	324.75	-2005.3	63.016	388.26	-1843.9	41.908	451.32	-1801.7	45.004	332.98	-1739.9	58.173	381.97	-1595.5	681.06	127.75	-1496.1	637.75	156.38	-1555.6	595.09	142.29	-1527.7	722.44	143.47	-1509.6	520.27	152.38	-1474	313.29	148.94	-1384.5	298.62	144.61	-1439.5	252.14	165.01	-1422.8	357.87	135.92	-1336.5	145.1	165.4	-1305.4	180.86	248.82	NaN	NaN	NaN	-1317.2	59.578	254.69	NaN	NaN	NaN	-1188	143.95	120.89	-1166.5	175.94	234.17	-1126.6	217.37	172.79	-1710.5	1552.1	327.91	-1824.4	1279.1	324.79
4	0.0125	NaN	NaN	NaN	-1652.1	1501.2	483.95	-1668.9	1520.5	158.6	-1647.6	1814	303.27	NaN	NaN	NaN	NaN	NaN	NaN	NaN	NaN	NaN	NaN	NaN	NaN	-1739.8	926.27	513.37	-1662.9	908.71	127.95	-1729.3	1082.9	486.59	-1682.6	1070.9	152.59	-1825.5	978.37	311.15	-1717.7	696.4	499.07	NaN	NaN	NaN	-1762.8	620.34	478.37	NaN	NaN	NaN	NaN	NaN	NaN	NaN	NaN	NaN	-1934.4	312.5	434.56	-1892.1	233.45	435.36	-1958.1	243.1	417.05	NaN	NaN	NaN	-1930.9	134.21	413.62	-1912.7	161.22	325.95	-2010.3	91.297	350.14	-1998.8	56.917	324.46	-2005.1	63.916	387.96	-1843.8	41.975	451.32	-1801.5	44.859	333.03	-1739.7	57.805	382.01	-1588.8	680.67	127.63	-1489.4	637.48	156.81	-1548.7	594.75	142.28	-1521.1	722.14	143.83	-1503	519.8	152.32	-1467.6	313.03	148.8	-1378.6	297.6	144.77	-1433.5	251.34	164.86	-1416.5	357.09	135.91	-1331.1	143.99	165.46	-1300.3	179.61	249.18	NaN	NaN	NaN	-1313.4	58.159	254.61	NaN	NaN	NaN	-1182.8	142.72	121.23	-1161.2	174.46	234.76	-1121.2	216.01	173.55	-1705	1551.1	327.25	-1819	1278.2	324.24
5	0.016667	NaN	NaN	NaN	-1646.6	1500.3	483.32	-1663.2	1519.4	157.9	-1642.4	1813.1	302.41	NaN	NaN	NaN	NaN	NaN	NaN	NaN	NaN	NaN	NaN	NaN	NaN	-1734.6	925.44	512.9	-1656.5	907.94	127.61	-1724	1082	486.18	-1676.6	1070	152.2	-1819.8	977.49	310.4	-1713.3	695.7	498.94	NaN	NaN	NaN	-1758.3	619.62	478.22	NaN	NaN	NaN	NaN	NaN	NaN	NaN	NaN	NaN	-1932.6	313.22	434.42	-1890.2	233.53	435.12	-1956.5	243.85	416.82	NaN	NaN	NaN	-1930	134.73	413.41	-1911.6	161.7	325.77	-2009.8	92.311	349.87	-1998.5	57.874	324.19	-2004.8	64.895	387.67	-1843.7	42.045	451.33	-1801.3	44.719	333.08	-1739.4	57.421	382.05	-1581.8	680.29	127.52	-1482.5	637.24	157.25	-1541.7	594.43	142.29	-1514.3	721.87	144.2	-1496.1	519.34	152.27	-1461.2	312.71	148.66	-1372.7	296.51	144.94	-1427.4	250.5	164.71	-1410.1	356.27	135.92	-1325.7	142.79	165.53	-1295.2	178.23	249.54	NaN	NaN	NaN	-1309.5	56.656	254.52	NaN	NaN	NaN	-1177.6	141.29	121.6	-1156	172.75	235.37	-1115.7	214.39	174.34	-1699.3	1550.1	326.57	-1813.4	1277.2	323.68
6	0.020833	NaN	NaN	NaN	-1640.9	1499.5	482.67	-1657.5	1518.2	157.17	-1637	1812.2	301.52	NaN	NaN	NaN	NaN	NaN	NaN	NaN	NaN	NaN	NaN	NaN	NaN	-1729.3	924.62	512.39	-1650.1	907.18	127.24	-1718.5	1081.1	485.76	-1670.6	1069	151.79	-1813.9	976.61	309.63	-1709	695.06	498.82	NaN	NaN	NaN	-1753.7	618.91	478.07	NaN	NaN	NaN	NaN	NaN	NaN	NaN	NaN	NaN	-1930.6	313.98	434.28	-1888.3	233.66	434.89	-1954.8	244.64	416.6	NaN	NaN	NaN	-1929.2	135.3	413.22	-1910.5	162.22	325.6	-2009.3	93.416	349.62	-1998.2	58.92	323.93	-2004.6	65.958	387.4	-1843.7	42.119	451.35	-1801.1	44.588	333.14	-1739.2	57.025	382.11	-1574.6	679.94	127.43	-1475.5	637.03	157.71	-1534.4	594.14	142.33	-1507.3	721.62	144.56	-1489.2	518.9	152.24	-1454.8	312.34	148.54	-1366.7	295.35	145.14	-1421.3	249.62	164.57	-1403.6	355.39	135.95	-1320.5	141.48	165.61	-1290.3	176.72	249.89	NaN	NaN	NaN	-1305.7	55.076	254.44	NaN	NaN	NaN	-1172.5	139.64	121.98	-1150.9	170.77	235.99	-1110.3	212.48	175.16	-1693.5	1549.2	325.85	-1807.6	1276.3	323.09
7	0.025	NaN	NaN	NaN	-1635.2	1498.6	481.99	-1651.6	1517.1	156.42	-1631.5	1811.3	300.61	NaN	NaN	NaN	NaN	NaN	NaN	NaN	NaN	NaN	NaN	NaN	NaN	-1723.9	923.81	511.87	-1643.5	906.44	126.86	-1712.9	1080.1	485.31	-1664.3	1068	151.36	-1807.9	975.73	308.83	-1704.6	694.48	498.72	NaN	NaN	NaN	-1749	618.2	477.92	NaN	NaN	NaN	NaN	NaN	NaN	NaN	NaN	NaN	-1928.5	314.76	434.14	-1886.3	233.84	434.69	-1953	245.48	416.38	NaN	NaN	NaN	-1928.3	135.93	413.05	-1909.3	162.79	325.44	-2008.8	94.616	349.4	-1997.8	60.062	323.69	-2004.3	67.111	387.15	-1843.6	42.194	451.39	-1800.9	44.468	333.19	-1739	56.619	382.17	-1567.3	679.6	127.35	-1468.3	636.84	158.18	-1527	593.88	142.4	-1500.2	721.39	144.91	-1482.1	518.47	152.23	-1448.5	311.91	148.44	-1360.8	294.12	145.35	-1415.4	248.73	164.44	-1397.1	354.47	136.01	-1315.4	140.08	165.69	-1285.4	175.06	250.23	NaN	NaN	NaN	-1302.1	53.429	254.35	NaN	NaN	NaN	-1167.6	137.77	122.39	-1146	168.52	236.61	-1105	210.26	176	-1687.6	1548.2	325.12	-1801.8	1275.4	322.49
8	0.029167	NaN	NaN	NaN	-1629.3	1497.7	481.29	-1645.7	1515.9	155.65	-1625.9	1810.4	299.67	NaN	NaN	NaN	NaN	NaN	NaN	NaN	NaN	NaN	NaN	NaN	NaN	-1718.4	923.02	511.33	-1636.8	905.72	126.46	-1707.3	1079.2	484.85	-1658	1067.1	150.91	-1801.8	974.87	308.03	-1700.3	693.97	498.64	NaN	NaN	NaN	-1744.2	617.51	477.77	NaN	NaN	NaN	NaN	NaN	NaN	NaN	NaN	NaN	-1926.3	315.57	434.01	-1884.4	234.08	434.51	-1951.1	246.38	416.18	NaN	NaN	NaN	-1927.4	136.63	412.9	-1908.1	163.41	325.3	-2008.2	95.919	349.21	-1997.5	61.307	323.47	-2004	68.36	386.93	-1843.5	42.271	451.44	-1800.7	44.359	333.24	-1738.7	56.205	382.25	-1559.8	679.29	127.29	-1461	636.69	158.66	-1519.5	593.65	142.5	-1493	721.19	145.24	-1474.8	518.06	152.24	-1442.3	311.44	148.34	-1355	292.83	145.59	-1409.5	247.81	164.32	-1390.7	353.51	136.09	-1310.5	138.6	165.78	-1280.8	173.29	250.57	NaN	NaN	NaN	-1298.6	51.731	254.27	NaN	NaN	NaN	-1162.9	135.68	122.81	-1141.2	165.99	237.24	-1099.9	207.74	176.86	-1681.6	1547.3	324.36	-1795.8	1274.4	321.87
9	0.033333	NaN	NaN	NaN	-1623.4	1496.9	480.57	-1639.7	1514.8	154.86	-1620.2	1809.5	298.71	NaN	NaN	NaN	NaN	NaN	NaN	NaN	NaN	NaN	NaN	NaN	NaN	-1712.8	922.25	510.76	-1630	905.04	126.05	-1701.5	1078.3	484.37	-1651.6	1066.1	150.45	-1795.6	974.03	307.2	-1696	693.55	498.57	NaN	NaN	NaN	-1739.2	616.83	477.62	NaN	NaN	NaN	NaN	NaN	NaN	NaN	NaN	NaN	-1923.9	316.43	433.89	-1882.4	234.38	434.35	-1949.2	247.34	416	NaN	NaN	NaN	-1926.5	137.39	412.79	-1906.8	164.08	325.18	-2007.6	97.33	349.05	-1997.1	62.661	323.28	-2003.6	69.709	386.74	-1843.4	42.349	451.5	-1800.5	44.264	333.29	-1738.5	55.787	382.33	-1552.3	679	127.25	-1453.6	636.55	159.14	-1511.9	593.44	142.62	-1485.7	721	145.57	-1467.6	517.66	152.26	-1436.2	310.94	148.25	-1349.2	291.48	145.84	-1403.8	246.87	164.22	-1384.3	352.51	136.2	-1305.8	137.05	165.88	-1276.3	171.39	250.89	NaN	NaN	NaN	-1295.3	49.999	254.19	NaN	NaN	NaN	-1158.4	133.36	123.26	-1136.7	163.21	237.87	-1094.9	204.92	177.74	-1675.6	1546.3	323.58	-1789.8	1273.5	321.23
10	0.0375	NaN	NaN	NaN	-1617.4	1496.1	479.83	-1633.6	1513.7	154.05	-1614.5	1808.7	297.74	NaN	NaN	NaN	NaN	NaN	NaN	NaN	NaN	NaN	NaN	NaN	NaN	-1707.1	921.51	510.18	-1623.2	904.39	125.62	-1695.7	1077.5	483.87	-1645.2	1065.2	149.96	-1789.4	973.22	306.36	-1691.8	693.21	498.53	NaN	NaN	NaN	-1734.2	616.18	477.48	NaN	NaN	NaN	NaN	NaN	NaN	NaN	NaN	NaN	-1921.4	317.32	433.78	-1880.3	234.75	434.23	-1947.2	248.35	415.83	NaN	NaN	NaN	-1925.5	138.23	412.7	-1905.5	164.8	325.09	-2007	98.856	348.92	-1996.7	64.131	323.12	-2003.2	71.166	386.58	-1843.3	42.427	451.57	-1800.3	44.184	333.35	-1738.3	55.37	382.42	-1544.8	678.73	127.23	-1446.2	636.44	159.62	-1504.2	593.25	142.77	-1478.3	720.84	145.86	-1460.3	517.28	152.3	-1430.2	310.4	148.17	-1343.6	290.08	146.12	-1398.2	245.93	164.13	-1377.9	351.47	136.33	-1301.4	135.43	165.98	-1272	169.4	251.2	NaN	NaN	NaN	-1292.2	48.256	254.12	NaN	NaN	NaN	-1154.1	130.84	123.72	-1132.3	160.17	238.49	-1090.1	201.8	178.62	-1669.5	1545.4	322.78	-1783.8	1272.6	320.58
11	0.041667	NaN	NaN	NaN	-1611.4	1495.3	479.07	-1627.6	1512.7	153.22	-1608.8	1807.8	296.75	NaN	NaN	NaN	NaN	NaN	NaN	NaN	NaN	NaN	NaN	NaN	NaN	-1701.4	920.81	509.58	-1616.3	903.78	125.18	-1689.8	1076.6	483.35	-1638.6	1064.4	149.46	-1783	972.43	305.51	-1687.7	692.97	498.51	NaN	NaN	NaN	-1729.1	615.56	477.34	NaN	NaN	NaN	NaN	NaN	NaN	NaN	NaN	NaN	-1918.8	318.26	433.7	-1878.3	235.19	434.14	-1945.1	249.42	415.68	-1864.2	311.06	452.22	-1924.5	139.14	412.65	-1904.2	165.58	325.04	-2006.3	100.5	348.84	-1996.3	65.726	322.99	-2002.8	72.735	386.45	-1843.3	42.504	451.64	-1800.1	44.119	333.4	-1738.1	54.956	382.51	-1537.2	678.47	127.22	-1438.7	636.33	160.08	-1496.6	593.08	142.95	-1470.9	720.68	146.13	-1453	516.92	152.35	-1424.4	309.85	148.09	-1338	288.64	146.41	-1392.9	244.98	164.06	-1371.7	350.4	136.49	-1297.2	133.78	166.07	-1267.9	167.32	251.5	NaN	NaN	NaN	-1289.4	46.526	254.05	NaN	NaN	NaN	-1150	128.13	124.19	-1128.2	156.9	239.1	-1085.6	198.4	179.49	-1663.4	1544.6	321.96	-1777.7	1271.8	319.91
